<?xml version="1.0" encoding="UTF-8"?><svg xmlns="http://www.w3.org/2000/svg" xmlns:xlink="http://www.w3.org/1999/xlink" fill-opacity="1" color-rendering="auto" color-interpolation="auto" text-rendering="auto" stroke="black" stroke-linecap="square" width="524" stroke-miterlimit="10" shape-rendering="auto" stroke-opacity="1" fill="black" stroke-dasharray="none" font-weight="normal" stroke-width="1" height="218" font-family="'Dialog'" font-style="normal" stroke-linejoin="miter" font-size="12px" stroke-dashoffset="0" image-rendering="auto">
  <!--Generated by ySVG 2.6-->
  <defs id="genericDefs"/>
  <g>
    <defs id="defs1">
      <linearGradient x1="105" gradientUnits="userSpaceOnUse" x2="117.2509" y1="165" y2="173.9219" id="linearGradient1" spreadMethod="pad">
        <stop stop-opacity="0.8627" stop-color="rgb(255,255,255)" offset="0%"/>
        <stop stop-opacity="0.1255" stop-color="rgb(255,255,255)" offset="100%"/>
      </linearGradient>
      <linearGradient x1="225" gradientUnits="userSpaceOnUse" x2="237.2509" y1="165" y2="173.9219" id="linearGradient2" spreadMethod="pad">
        <stop stop-opacity="0.8627" stop-color="rgb(255,255,255)" offset="0%"/>
        <stop stop-opacity="0.1255" stop-color="rgb(255,255,255)" offset="100%"/>
      </linearGradient>
      <linearGradient x1="105" gradientUnits="userSpaceOnUse" x2="117.2509" y1="285" y2="293.9219" id="linearGradient3" spreadMethod="pad">
        <stop stop-opacity="0.8627" stop-color="rgb(255,255,255)" offset="0%"/>
        <stop stop-opacity="0.1255" stop-color="rgb(255,255,255)" offset="100%"/>
      </linearGradient>
      <linearGradient x1="225" gradientUnits="userSpaceOnUse" x2="237.2509" y1="285" y2="293.9219" id="linearGradient4" spreadMethod="pad">
        <stop stop-opacity="0.8627" stop-color="rgb(255,255,255)" offset="0%"/>
        <stop stop-opacity="0.1255" stop-color="rgb(255,255,255)" offset="100%"/>
      </linearGradient>
      <clipPath clipPathUnits="userSpaceOnUse" id="clipPath1">
        <path d="M0 0 L524 0 L524 218 L0 218 L0 0 Z"/>
      </clipPath>
      <clipPath clipPathUnits="userSpaceOnUse" id="clipPath2">
        <path d="M-82 131 L442 131 L442 349 L-82 349 L-82 131 Z"/>
      </clipPath>
    </defs>
    <g fill="rgb(255,153,0)" text-rendering="geometricPrecision" shape-rendering="geometricPrecision" transform="matrix(1,0,0,1,82,-131)" stroke="rgb(255,153,0)">
      <rect x="105" y="165" clip-path="url(#clipPath2)" width="30" rx="1.5" ry="1.5" height="30" stroke="none"/>
      <path fill="url(#linearGradient1)" d="M105.75 168 Q105.75 165.75 108 165.75 L121.5 165.75 Q123.75 165.75 123.75 168 Q123.75 170.25 117 179.25 Q110.25 188.25 108 188.25 Q105.75 188.25 105.75 186 Z" clip-path="url(#clipPath2)" stroke="none"/>
    </g>
    <g text-rendering="geometricPrecision" stroke-miterlimit="1.45" shape-rendering="geometricPrecision" font-family="sans-serif" transform="matrix(1,0,0,1,82,-131)" stroke-linecap="butt">
      <text x="-64.4121" xml:space="preserve" y="160.3633" clip-path="url(#clipPath2)" stroke="none">Node with Comment and Rank</text>
    </g>
    <g fill="rgb(255,153,0)" text-rendering="geometricPrecision" shape-rendering="geometricPrecision" transform="matrix(1,0,0,1,82,-131)" stroke="rgb(255,153,0)">
      <rect x="225" y="165" clip-path="url(#clipPath2)" width="30" rx="1.5" ry="1.5" height="30" stroke="none"/>
      <path fill="url(#linearGradient2)" d="M225.75 168 Q225.75 165.75 228 165.75 L241.5 165.75 Q243.75 165.75 243.75 168 Q243.75 170.25 237 179.25 Q230.25 188.25 228 188.25 Q225.75 188.25 225.75 186 Z" clip-path="url(#clipPath2)" stroke="none"/>
    </g>
    <g text-rendering="geometricPrecision" stroke-miterlimit="1.45" shape-rendering="geometricPrecision" font-family="sans-serif" transform="matrix(1,0,0,1,82,-131)" stroke-linecap="butt">
      <text x="261" xml:space="preserve" y="160.3633" clip-path="url(#clipPath2)" stroke="none">Node with Comment and Rank</text>
    </g>
    <g fill="rgb(255,204,153)" text-rendering="geometricPrecision" shape-rendering="geometricPrecision" transform="matrix(1,0,0,1,82,-131)" stroke="rgb(255,204,153)">
      <rect x="105" y="285" clip-path="url(#clipPath2)" width="30" rx="1.5" ry="1.5" height="30" stroke="none"/>
      <path fill="url(#linearGradient3)" d="M105.75 288 Q105.75 285.75 108 285.75 L121.5 285.75 Q123.75 285.75 123.75 288 Q123.75 290.25 117 299.25 Q110.25 308.25 108 308.25 Q105.75 308.25 105.75 306 Z" clip-path="url(#clipPath2)" stroke="none"/>
    </g>
    <g text-rendering="geometricPrecision" stroke-miterlimit="1.45" shape-rendering="geometricPrecision" font-family="sans-serif" transform="matrix(1,0,0,1,82,-131)" stroke-linecap="butt">
      <text x="14.291" xml:space="preserve" y="329.0645" clip-path="url(#clipPath2)" stroke="none">Node with Rank</text>
    </g>
    <g fill="silver" text-rendering="geometricPrecision" shape-rendering="geometricPrecision" transform="matrix(1,0,0,1,82,-131)" stroke="silver">
      <rect x="225" y="285" clip-path="url(#clipPath2)" width="30" rx="1.5" ry="1.5" height="30" stroke="none"/>
      <path fill="url(#linearGradient4)" d="M225.75 288 Q225.75 285.75 228 285.75 L241.5 285.75 Q243.75 285.75 243.75 288 Q243.75 290.25 237 299.25 Q230.25 308.25 228 308.25 Q225.75 308.25 225.75 306 Z" clip-path="url(#clipPath2)" stroke="none"/>
    </g>
    <g text-rendering="geometricPrecision" stroke-miterlimit="1.45" shape-rendering="geometricPrecision" font-family="sans-serif" transform="matrix(1,0,0,1,82,-131)" stroke-linecap="butt">
      <text x="261" xml:space="preserve" y="329.0645" clip-path="url(#clipPath2)" stroke="none">Node with Default Values</text>
    </g>
    <g stroke-linecap="butt" transform="matrix(1,0,0,1,82,-131)" fill="red" text-rendering="geometricPrecision" shape-rendering="geometricPrecision" stroke="red" stroke-miterlimit="1.45">
      <path fill="none" d="M134.9707 180 L216.9995 180" clip-path="url(#clipPath2)"/>
    </g>
    <g stroke-linecap="butt" transform="matrix(1,0,0,1,82,-131)" fill="red" text-rendering="geometricPrecision" shape-rendering="geometricPrecision" stroke="red" stroke-miterlimit="1.45">
      <path d="M224.9995 180 L212.9995 175 L215.9995 180 L212.9995 185 Z" stroke="none" clip-path="url(#clipPath2)"/>
      <path fill="none" d="M120 194.9707 L120 276.9995" clip-path="url(#clipPath2)" stroke="black"/>
      <path fill="black" d="M120 284.9995 L125 272.9995 L120 275.9995 L115 272.9995 Z" clip-path="url(#clipPath2)" stroke="none"/>
      <path fill="none" d="M134.9707 300 L216.9995 300" clip-path="url(#clipPath2)"/>
      <path d="M224.9995 300 L212.9995 295 L215.9995 300 L212.9995 305 Z" clip-path="url(#clipPath2)" stroke="none"/>
      <path fill="none" d="M240 194.9707 L240 276.9995" clip-path="url(#clipPath2)" stroke="silver"/>
      <path fill="silver" d="M240 284.9995 L245 272.9995 L240 275.9995 L235 272.9995 Z" clip-path="url(#clipPath2)" stroke="none"/>
    </g>
  </g>
</svg>
